<svg width="48" height="48" xmlns="http://www.w3.org/2000/svg"><path style="display:inline;fill:#000;fill-opacity:1;stroke-width:.592596" d="M23.388 37.84c-.156-.077-5.443-5.303-11.75-11.614C1.329 15.911.161 14.713.068 14.354c-.192-.731-.036-1.025 1.246-2.345 1.838-1.895 2.258-2.153 3.1-1.907.339.099 1.658 1.38 9.988 9.702L24 29.394l9.597-9.59c8.33-8.322 9.65-9.603 9.988-9.702.842-.246 1.262.013 3.1 1.907 1.282 1.32 1.438 1.614 1.247 2.345-.094.358-1.262 1.557-11.572 11.874-6.308 6.311-11.602 11.539-11.764 11.616a1.427 1.427 0 0 1-1.208-.004Z"/></svg>