<svg width="533.667" height="531.252" xmlns="http://www.w3.org/2000/svg"><rect style="display:inline;fill:#fff;stroke-width:1" width="533.667" height="531.252" x="-1.1" y=".294" ry="1.727" rx="1.727" class="UnoptimicedTransforms" transform="translate(1.1 -.294)"/><path style="display:inline;fill:#000;stroke-width:1" d="M275.077 360.675v-7.544h14.508v14.334l-5.312.378c-2.922.207-6.186.377-7.254.377h-1.942zm-8.85 23.36-6.82-.183V368.22h7.607c6.698 0 7.564.11 7.254.918-.194.504-.352 4.16-.352 8.124 0 3.964-.196 7.15-.435 7.082-.24-.069-3.504-.207-7.254-.309zm-63.774.001c-7.997-.217-7.442.474-7.454-9.288l-.008-6.528-2.467-.003c-1.356-.002-4.62-.172-7.254-.377l-4.787-.372V353.13H211.414l-.327-7.805-.328-7.805 8.22-.174 8.22-.175-.189 7.98-.189 7.98h15.177v14.508l-3.627.033c-1.995.018-9.046.026-15.67.018l-12.041-.015v8.397c0 6.397-.173 8.367-.726 8.272-.399-.069-3.765-.208-7.48-.308zm40.705-37.208c0-2.828-.166-6.353-.369-7.834l-.369-2.693H227.49v-10.814l4.208-.984c2.314-.54 5.252-.977 6.529-.97 2.007.012 17.472 4.076 18.922 4.972.285.176.519 2.264.519 4.639v4.318H273.916V351.245l-1.814.363c-.997.2-7.918.362-15.378.362h-13.566zm-24.194 20.958c4.408-.1 11.46-.099 15.67 0 4.21.1.603.18-8.015.18s-12.063-.082-7.655-.18zm-68.949 63.845c-.638-.16-1.352-.586-1.587-.948-.234-.362-.43-3.727-.435-7.477l-.009-6.819h14.508v15.669l-5.658-.067c-3.112-.037-6.18-.198-6.819-.358zm-17.7 88.345v-7.835h14.509v15.669h-14.509zm126.888-60.442c-.207-2.442-.376-5.967-.376-7.834v-3.395H273.916v15.669H259.578zm32.123 12.565v-7.545h14.508V479.643h-14.508zm31.918 15.959v-7.835h14.508v15.669h-14.508zm-31.918 15.959v-7.544h14.508v15.088h-14.508zm31.918 15.959v-7.835h14.508v15.669h-14.508zm95.174-96.045v-7.544h14.508V431.476h-14.508zm-78.925 47.878v-7.835H323.244v-15.669h46.426v15.669h-15.669v15.669h-14.508zm94.594 48.167v-7.835h14.508v15.669h-14.508zm16.25-15.96v-7.543h14.508v15.088h-14.509zm15.668 15.96v-7.835h14.508v15.669h-14.508zm32.499 0v-7.835h14.508v15.669h-14.508zm15.669-48.167v-7.835h-15.669v-15.669h15.669V432.056h14.508v47.587h-14.508zm0-127.093v-7.254h14.508v14.508h-14.508zm0-79.795v-7.545h14.508V272.465h-14.508zM386.5 297.129v-7.834H401.589v15.669H386.5zm-16.25-16.25v-7.834h15.67v15.669H370.25zm-78.924 49.593c0-4.728.135-5.384 1.356-6.606 1.52-1.52 5.908-2.653 10.279-2.653h2.873v14.508h-14.508zm11.376-119.494-2.77-1.769 2.315-.04c2.81-.048 3.246.086 3.567 1.1.23.728.107 2.5-.173 2.486-.093-.005-1.416-.804-2.94-1.777zM197.176 335.502l-1.847-.356v-19.115c0-10.513-.235-20.828-.522-22.923l-.522-3.807 5.652.012c8.26.019 8.375.163 6.683 8.362-.774 3.745-3.068 12.892-5.1 20.327-2.031 7.435-3.386 13.826-3.01 14.201.375.376 3.037.14 5.913-.525 2.877-.664 5.517-1.032 5.865-.816.35.215.635 1.478.635 2.805v2.414l-5.95-.112c-3.273-.061-6.782-.271-7.797-.467zm-161.887 8.991-.002-7.18 7.799.26 7.798.262v13.84H35.291zm48.248-.82-.235-8.002-8.002-.235-8.002-.235v-15.534H51.705v-14.773H35.29v-15.593H66.478v16.414h16.414v15.593H114.9v13.709l-7.11.501c-3.91.276-7.511.903-8.002 1.394-.49.49-1.023 4.013-1.182 7.827l-.29 6.936H83.773ZM9.233 272.28l-4.309-.301-.007-3.035c-.004-1.669-.24-4.974-.525-7.343l-.517-4.31h15.822V272.887l-3.078-.151a446.87 446.87 0 0 1-7.386-.454zm10.464 8.813v-7.387h15.594v14.773H19.697zM9.233 304.289l-4.309-.301-.007-3.035c-.004-1.67-.24-4.974-.525-7.344l-.517-4.308h15.822v15.593l-3.078-.152a446.77 446.77 0 0 1-7.386-.453zm-5.13 56.003v-38.984h15.594v-15.593h15.594v29.34l-2.565.513c-1.41.282-4.686.513-7.28.513h-4.713l-.51 3.078c-.279 1.693-.512 15.911-.517 31.597l-.009 28.52H4.104Zm128.031 47.601v-7.796l-36.726-.003c-20.2-.002-41.99-.244-48.422-.538l-11.695-.535v-14.518H67.298V353.316h15.594V384.503h32.886l-.234-8.412-.234-8.412-8.002-.235-8.002-.235v-13.893h16.414v-15.35l6.771-.527c3.724-.29 14.619-.53 24.211-.532l17.44-.005v-15.594h14.773V351.675h-7.338c-4.036 0-7.539.325-7.784.722-.246.397-.688 3.86-.983 7.696l-.536 6.973-4.195.504c-2.308.278-9.221.508-15.364.512l-11.167.007-.528 5.044c-.29 2.775-.527 6.468-.527 8.207v3.163h16.414V415.69h-14.773zm-96.317 84.328c-.28-1.692-.512-12.218-.517-23.39l-.01-20.312h47.601v46.78H36.327ZM4.73 514.381c-.152-7.11-.36-32.039-.464-55.398l-.189-42.472H114.9v110.796H5.005Zm94.577-42.472v-40.625H19.697v81.25H99.306zm256.062 47.601v-7.797h-16.414V496.12h46.78v16.414h16.414V496.12h16.415v-15.594h30.366v14.558l-3.078.509c-1.692.28-5.15.513-7.682.518l-4.605.009-.518 4.308c-.284 2.37-.52 5.879-.524 7.797l-.007 3.488h-14.773v3.99c0 2.193-.235 5.702-.522 7.796l-.522 3.808h-61.33Zm127.035-15.799-.235-8.002-8.002-.234-8.002-.235v-14.714h16.414v-16.414h13.952v47.601h-13.893zm-318.26 15.799v-7.797h-15.4l-.584-7.796-.584-7.797-4.643-.01c-2.553-.004-6.027-.237-7.72-.517l-3.078-.509v-62.98h14.773v16.415l3.078-.006c1.693-.003 5.57-.242 8.617-.53l5.54-.523v-15.356h14.773v47.601h-16.414v16.415h32.828l-.006-26.468c-.003-14.558-.241-28.961-.529-32.008l-.523-5.54h-4.293c-2.36 0-5.4-.221-6.752-.492-2.449-.49-2.463-.525-3.18-8.002l-.72-7.51-7.592-.236-7.592-.236v-15.532H211.515l-.408-7.796-.408-7.797h30.59v15.836l-7.387-.478-7.386-.479v32.722H243.341l-.293-16.004-.292-16.004h32.774l-.407-7.779-.407-7.779 16.32-.223 16.32-.222.223-15.389.224-15.388h13.916v14.773h17.74l-.356-7.592c-.203-4.326-.753-7.85-1.279-8.194-.507-.332-3.97-.61-7.693-.616l-6.771-.013v-13.952h15.528l.238-16.415.238-16.415-8.115.001h-8.115l.537-4.572c.296-2.515 1.786-8.516 3.312-13.336 1.526-4.82 3.004-9.78 3.285-11.021l.51-2.257h22.948v32.008h32.008v45.96l-6.77.012c-3.725.007-7.18.284-7.678.616-.622.413-1.052 10.584-1.37 32.405l-.461 31.803h17.1v-48.422h15.593V337.722H432.515v13.952h-6.089c-8.965 0-8.684-.281-8.684 8.706v7.709H432.269l.534 7.524c.294 4.138.65 7.64.793 7.782.142.143 4.02.506 8.616.807l8.358.548v-31.434h13.952V384.503h16.414v14.558l-3.077.509c-1.693.28-5.145.512-7.672.517l-4.593.01-.532 9.232c-.293 5.078-.534 12.28-.536 16.004l-.004 6.771h18.056V400.097H514.823l-.523-5.54c-.288-3.047-.526-6.556-.53-7.797l-.006-2.257H482.577V368.09h15.594v-14.773h14.773v14.773h15.593v47.601l-14.567.013c-8.013.007-15.023.301-15.579.654-.707.45-1.177 5.253-1.565 15.992l-.555 15.349h-15.335v15.534l-8.002.235-8.002.235-.235 8.002-.235 8.002H450.63l-.235-8.002-.235-8.002-16.086-.222-16.087-.222-.485 7.492c-.267 4.121-.675 7.683-.907 7.915-.233.232-3.763.612-7.845.845l-7.422.423V495.3h-14.773v-15.593H370.14v-15.594H386.589l-.223-16.209-.222-16.209-15.388-.223-15.389-.224v-17.093c0-9.4-.239-19.918-.53-23.372l-.531-6.279h-32.588v15.594h15.594V431.284H323.36v-6.21c0-9.065-.29-9.384-8.551-9.384-7.993 0-7.834.197-7.852-9.672l-.012-5.979-8.412.234-8.412.234-.223 15.799-.223 15.798h32.043v15.594H275.973l-.509-3.078c-.28-1.693-.512-8.71-.517-15.593l-.01-12.516h-8.119c-6.646 0-8.21.235-8.617 1.298-.274.714-.498 7.916-.498 16.004v14.706h-15.594v15.593h15.594v16.414H289.71V495.3H257.703v32.008h-93.561zm63.194-15.593v-8.618h-16.414v17.235h16.414zm-.129-47.124c-.155-13.053-.466-23.897-.692-24.098-.225-.201-3.826-.577-8.002-.835l-7.591-.47v49.136h16.567zm222.922-32.28c-.323-13.203-.633-24.056-.689-24.118-.056-.061-10.812-.246-23.902-.41l-23.801-.299-.217 24.416-.218 24.417h49.414zm-79.99-95.408v-8.617h-16.414v17.235h16.415zm-197.175-40.417-8.823-.264v-14.483l5.045-.527c2.774-.29 9.607-.528 15.183-.528h10.138v16.415l-6.36-.175a7565.23 7565.23 0 0 1-15.183-.438zm-40.83-7.594v-7.387h14.772v14.773h-14.773zm16.414 31.597v-6.976H162.5v13.952h-13.952zm-32.829-.41v-7.387H83.772l-.235-8.002-.235-8.002-8.002-.235-8.002-.235V257.293h16.415v-32.008H115.72V209.906l3.078-.508c1.693-.28 5.017-.513 7.386-.518l4.309-.009v32.008H98.485v16.414H114.9v15.593H98.485v16.415h32.008v30.366H115.72zm-79.908-59.617c-.287-2.094-.521-5.404-.521-7.356v-3.55l8.002-.234 8.001-.235.235-8.002.235-8.002h14.714V256.472H36.334Zm-16.115-35.996v-7.797H4.104v-15.594H35.23l.235 8.002.235 8.002 7.592.236 7.591.236v14.711H19.697Zm32.008-22.98v-15.183H67.28l-.524 7.386-.524 7.386H114.9v15.594H51.705ZM4.104 137.469v-7.386h15.593v14.772H4.104Zm15.593 16.004v-6.976h15.594v13.952H19.697Zm47.601 16.004v-7.387h16.415v-17.235H35.29v-14.772H114.9v14.772H99.543l-.523 5.54c-.288 3.047-.526 6.925-.529 8.618l-.006 3.077H114.9v14.773H67.299Zm192.047-48.012v-23.39h13.952v46.78h-13.952zm-110.796 21.049c0-1.288-.238-4.612-.528-7.387l-.527-5.044h15.007v14.772h-13.952zm15.593-36.642v-7.797h14.773v15.593h-14.773zm17.966-8.34c-.977-.262-1.457-1.79-1.841-5.856-.95-10.052-1.588-9.195 6.855-9.195h7.387v15.594l-5.54-.095c-3.047-.053-6.135-.254-6.861-.449zm13.221 9.74c0-3.63-.224-7.185-.498-7.899-.434-1.131.574-1.298 7.84-1.298h8.337l-.562 7.181c-.31 3.95-.703 7.34-.874 7.534-.172.194-3.447.518-7.278.719l-6.965.365zm-14.773 30.197v-7.386h13.953v14.772h-13.953zm-11.695 87.21-4.719-.296V209.692h14.773v15.593l-2.667-.155c-1.467-.085-4.791-.288-7.387-.451zm-20.693 40.52-.577-7.687-4.976-.52c-2.737-.286-6.215-.52-7.728-.52h-2.753V241.945l7.513-.533c4.132-.293 14.842-.533 23.8-.533h16.289v-15.594H194.449l.235 8.002.235 8.002 5.208.246 5.208.247-.575 2.216c-1.596 6.153-2.81 15.228-2.836 21.194l-.03 6.669-2.564.512c-4.924.985-4.821 1.138-4.821-7.157v-7.67l-10.465-.533c-5.755-.294-12.957-.536-16.003-.537l-5.54-.003v16.414h-13.757zm63.575-45.605v-9.902h7.387c5.447 0 7.386.275 7.386 1.048 0 1.31-2.4 4.88-3.89 5.786-.613.373-3.313 3.445-5.999 6.825l-4.884 6.145zm58.95 67.753c-12.573-5.172-27.548-20.437-30.307-30.895-1.306-4.95-.37-10.807 2.22-13.884 4.248-5.05 8.159-3.743 10.925 3.65 2.15 5.747 2.14 7.13-.083 10.992-1.607 2.793-1.68 3.386-.709 5.733 1.433 3.457 10.431 11.629 16.04 14.566l4.47 2.34 3.997-3.938 3.997-3.938 6.08 3.206c5.247 2.766 6.046 3.476 5.827 5.176-1.02 7.9-11.965 11.307-22.457 6.992zm-57.727 28.358c.308-1.658 1.834-7.684 3.39-13.391l2.83-10.378-2.132-4.805c-3.187-7.187-4.464-13.727-4.478-22.936-.02-14.4 3.251-23.73 11.903-33.936 11.764-13.877 24.457-19.952 41.842-20.026 9.764-.041 16.334 1.483 25.031 5.809 8.54 4.247 19.878 15.49 23.785 23.585 3.985 8.256 5.761 15.848 5.761 24.62 0 9.083-1.458 15.176-5.7 23.823-5.546 11.305-13.827 19.572-25.077 25.034-8.328 4.045-15.163 5.225-27.369 4.73-8.11-.33-10.61-.78-16.454-2.958l-6.892-2.569-6.65 1.704a482.52 482.52 0 0 1-13.5 3.205l-6.85 1.502zm68.232-5.854c13.423-4.718 25.087-16.409 29.974-30.044 2.434-6.79 3.001-19.482 1.187-26.564-4.392-17.142-18.506-31.193-34.715-34.558-7.209-1.497-22.577-.638-27.997 1.563-14.392 5.848-25.531 18.247-29.263 32.574-1.594 6.12-1.612 17.526-.037 23.573.67 2.572 2.32 7.103 3.665 10.071l2.447 5.397-1.937 7.952c-1.066 4.373-1.67 8.24-1.343 8.59.327.353 4.258-.218 8.737-1.266l8.142-1.906 7.508 3.05c4.13 1.679 8.562 3.233 9.849 3.455 4.77.823 19.368-.335 23.783-1.887zm10.154-203.98v-7.796h13.952v15.593h-13.952zm32.008-32.007v-7.797h13.952v15.594H323.36zm-15.593 16.004V82.48h13.952v14.773h-13.952zM291.352 57.86v-7.386h13.952v14.773h-13.952zm0-39.394V3.693H321.72v14.773h-15.594v4.822c0 2.652-.23 5.975-.513 7.386l-.513 2.565h-13.747zm48.1 45.482c-.274-.714-.498-3.994-.498-7.29 0-7.008.045-6.976-9.644-6.994l-5.95-.011-.009-12.516c-.005-6.884-.238-13.9-.518-15.593l-.508-3.078H338.954V3.693h14.772V34.06h15.594v15.593h-15.594v15.594h-6.888c-5.524 0-6.987-.258-7.386-1.299zM370.14 10.67V3.693H401.328v13.952H370.14zm16.412 47.396.002-7.591h14.773V65.13l-7.389.263-7.388.264.002-7.592zm-31.185 111.412v-7.387h14.773v3.58c0 1.967-.235 5.291-.522 7.385l-.522 3.808h-13.729zm63.195 16.004v-6.976h13.952v13.952h-13.952zM450.57 57.86V34.06h45.96v47.6h-45.96ZM37.642 81.112c-2.063-.549-2.351-3.77-2.351-26.228V34.06h47.6v47.6l-21.953-.094c-12.075-.053-22.558-.256-23.296-.453Zm94.492.137V34.06H162.501V66.067h16.414v8.002l.002 8.002-16.005-.268-16.005-.268v46.906h-14.773zm23.186-63.395-6.771-.276V3.693H162.5v7.387c0 4.062-.093 7.31-.205 7.219-.113-.092-3.252-.292-6.976-.444zm27.493 47.624-2.257-.342V50.474h3.169c1.742 0 4.881-.235 6.976-.522l3.808-.522V34.06H181.89c-6.94 0-13.772-.231-15.183-.513l-2.565-.513v-14.31l14.916-.517c10.736-.372 15.102-.81 15.58-1.565.367-.577.672-3.726.679-6.999l.012-5.95h15.594v62.374l-12.926-.123c-7.11-.067-13.942-.277-15.184-.465zm44.388 48.57c-.234-26.287-.455-30.922-1.505-31.585-.678-.428-4.048-.784-7.49-.79l-6.257-.013-.513-2.565c-.282-1.41-.513-4.92-.513-7.797v-5.232H242.93v-7.7c0-8.965.312-8.684-9.643-8.703l-5.95-.011V34.06h15.593l.01-12.106c.004-6.658.237-13.49.517-15.183l.509-3.078h29.331v13.952h-6.088c-8.966 0-8.685-.281-8.685 8.706v7.709h14.773v15.593l-5.95.011c-9.956.019-9.644-.262-9.644 8.702v7.701h32.008V97.254H275.82l-.236-7.591-.236-7.592h-16.142c-8.878 0-16.347.205-16.597.457-.25.25-.53 11.7-.622 25.442-.091 13.742-.316 27.663-.5 30.935l-.333 5.95h-13.68zm-95.067 87.025v-7.797h15.594v-16.414h-15.594v-30.366h14.773v15.593H194.51v-15.593h32.784l-.512 7.797-.512 7.796h31.434v14.773H226.516v16.561l-7.181-.582c-3.95-.32-7.366-.753-7.592-.962-.225-.208-.539-3.672-.697-7.698l-.287-7.319h-16.25v32.008H180.81l-.538-11.21c-.295-6.165-.537-13.366-.537-16.003v-4.795H162.5v32.008H132.134zm317.989 126.891-.57-7.295-2.98-.492c-1.638-.271-12.304-.497-23.702-.502l-20.723-.009v-13.952h32.008V288.48h-32.008v-15.594h-15.593v-16.414H369.32v16.414h-13.952v-16.414H338.84l.261-7.798.262-7.799-4.514-.009c-2.483-.005-5.29-.218-6.239-.472-2.252-.605-4.475-5.37-5.035-10.789l-.446-4.32h46.131l.234 8.002.235 8.002 7.723.238c4.248.13 8.073-.111 8.5-.538.474-.475.542-6.845.173-16.446l-.601-15.672H323.36l-.011-5.95c-.007-3.272-.234-6.781-.506-7.797l-.495-1.846H274.117l-.012 2.257c-.007 1.241-.284 2.666-.616 3.165-.34.513-4.357 1.114-9.22 1.381-9.51.522-14.708 1.708-26.077 5.95-11.034 4.118-10.855 4.178-10.855-3.658 0-3.574-.224-7.083-.498-7.797-.444-1.157 1.293-1.298 16.004-1.298h16.502v-14.714l8.002-.234 8.001-.235.223-15.781.223-15.781 15.781-.223 15.781-.223.223-15.799.223-15.798h15.558V98.075h13.952v16.415h18.056V66.068h13.952V82.48h32.008v30.161l-2.565.514c-1.41.282-4.721.512-7.357.512h-4.792l-.235-8.001-.235-8.002H369.73l-.234 8.412-.234 8.412h16.472v15.594h15.594v14.711l-7.592.236-7.592.236-.236 7.591-.236 7.592-2.226.006c-1.224.003-4.705.24-7.735.526l-5.508.52-.236-8.117-.237-8.118-7.181-.237-7.181-.237-.011-5.918c-.007-3.255-.236-6.757-.511-7.782l-.5-1.864-16.108.222-16.109.223-.234 8.412-.234 8.412h15.651v46.78h80.43v15.594h-16.414v16.414h17.43l-.585-7.796-.584-7.797h14.926l.005 8.823c.002 4.852.242 11.87.532 15.593l.527 6.77 4.597.01c2.529.005 5.983.238 7.675.518l3.078.508v15.38h16.643l-.518 4.308c-.284 2.37-.52 5.878-.524 7.797l-.007 3.488h-15.594V289.3h15.534l.235 8.002.235 8.002h17.235l.234-8.413.234-8.412h-16.472V273.767l8.002-.235 8.002-.235.235-8.538.235-8.537-8.237.54-8.237.54V240.878H450.57v-15.594H466.224l-.234-8.002-.235-8.001-7.592-.236-7.592-.236v-46.72h13.953v16.415h18.055v-2.338c0-1.287-.236-5.134-.525-8.55l-.525-6.211-7.652-.574-7.653-.574-.235-7.496-.234-7.496-7.263-.238c-4.649-.153-7.676.105-8.412.716-.819.68-1.15 2.935-1.15 7.83v6.875h-30.366v-30.366h77.967v16.414h16.414v30.366H497.58l-.517 4.309c-.285 2.37-.52 6.063-.525 8.207l-.007 3.898h-15.593v16.415h17.235v-16.415h30.366v30.992l-7.797.585-7.797.584v15.44h-14.772v-16.414l-3.078.006c-1.693.003-5.57.242-8.617.53l-5.54.523V241.7h15.593v47.6h16.414v45.96h-14.772v-7.298c0-8.487.193-8.295-8.328-8.295-8.562 0-8.907.336-8.907 8.647v6.947H450.694zm-15.967-62.875v-8.618h-16.414v17.235h16.414zM323.35 171.734c-.007-3.724-.236-7.61-.51-8.635l-.5-1.863-16.109.222-16.109.222-.234 8.412-.233 8.413h33.706zM418.563 58.68V3.693h109.975v109.975H418.563Zm96.023-.9V17.49l-40.147.283c-22.08.156-40.357.494-40.615.752-.257.257-.564 17.904-.683 39.216-.188 33.708-.056 38.85 1.015 39.529.734.466 17.214.786 40.83.793l39.6.013zM8.862 113.068l-3.858-.306-.275-12.883c-.151-7.085-.36-31.626-.464-54.534l-.19-41.65H114.9v109.974l-51.09-.147c-28.099-.082-52.825-.286-54.948-.454ZM99.306 57.86V17.645H19.697v80.43H99.306ZM4.666 527.333c-.366-.366-.666-25.566-.666-56V416h111v112H60.167c-30.159 0-55.134-.3-55.5-.667ZM99 472v-40H20v80h79Zm-63.333 23.333c-.367-.366-.667-11.166-.667-24V448h48v48H59.667c-12.834 0-23.634-.3-24-.667zM132 520v-8h15v16h-15zm32 0v-8h-15.916l-.292-7.75-.292-7.75-7.75-.292-7.75-.292V432h15v16.08l8.25-.29 8.25-.29v-15l-7.709-.291-7.708-.292-.292-7.708-.291-7.709-7.709-.291-7.708-.292-.292-7.708-.291-7.709-48.25-.26-48.25-.26V384h32v-31h16v31h32v-16H99v-15h16v-15.964l24.25-.268 24.25-.268v-15.503l7.75.002L179 321v30.916l-7.75.292-7.75.292-.292 7.724-.291 7.725-15.709.275-15.708.275-.292 7.75-.292 7.75H147v32h16v16h16v48h-16v16h32.028l-.264-31.75-.264-31.75-7.209-.293-7.208-.293-.292-7.707-.291-7.707-7.75-.292-7.75-.292V400h47.084l-.292-7.75-.292-7.75-7.709-.291-7.708-.292-.292-7.708-.291-7.709-7.25-.294-7.25-.294V353h31.08l-.29-8.25-.29-8.25-7.732-.292-7.731-.291-.269-23.209-.268-23.208-15.208-.276-15.209-.276-.291-7.724-.292-7.724-7.709-.291-7.708-.292-.292-7.708-.291-7.709-7.709-.291-7.708-.292-.292-7.708-.291-7.709-16.25-.275L99 240.95V257h16v16H99v16h32v30.842l-7.588.329c-4.173.181-7.773.141-8-.088-.227-.229-.412-3.716-.412-7.75V305H83v16h32v15h-6.418c-9.564 0-9.582.016-9.582 8.607V352H83v-16H67v-16H51v-15H36v32h15v15H35v-16.088l-7.25.294-7.25.294-.264 31.75-.264 31.75H4v-79h15v-15.912l-7.25-.294-7.25-.294-.292-7.75-.292-7.75H19v-15.912l-7.25-.294-7.25-.294-.292-7.75-.292-7.75H20v16h16v16h31V257.051l-15.75-.276-15.75-.275-.292-7.75-.292-7.75H51v-16H19v-16H4v-16h32v16h15v-31h16v-16h16v-17H36v16H19v-16H4v-15h16v16h15v-16h80v14.916l-7.75.292-7.75.292-.29 8.25-.29 8.25H115v14.964l-23.75.268-23.75.268-.292 7.75-.292 7.75H115v16.08l8.25-.29 8.25-.29.291-7.709.292-7.708 7.708-.292 7.709-.291v-15l-7.75-.292-7.75-.292V146h15v16.036l23.75-.268 23.75-.268v-16l-7.25-.294-7.25-.294V130h15v16h32.028l-.264-31.75-.264-31.75-7.709-.291-7.708-.292-.292-7.708-.291-7.709-15.25-.276-15.25-.276v-15.86l7.25-.294 7.25-.294v-15l-15.75-.275-15.75-.276V66h16v16h16v16h16.084l-.292 7.75-.292 7.75-7.707.291-7.707.292-.293-7.792-.293-7.791-7.209-.293-7.208-.293-.292-7.707-.291-7.707-16.25-.275L147 81.95V129h-15V34.051l15.75-.276 15.75-.275v-15l-7.75-.292-7.75-.292V3h15v15.051l15.75-.276 15.75-.275.294-7.25.294-7.25H211v63.051l15.75-.276 15.75-.275v-15l-7.75-.292-7.75-.292V34.084l7.75-.292 7.75-.292.276-15.25.276-15.25H274v14.916l-7.75.292-7.75.292v15l7.75.292 7.75.292v15.832l-7.75.292-7.75.292-.292 7.75-.292 7.75H290v32h-15V81.95l-16.25.275-16.25.275-.264 31.206-.264 31.207-7.236.293-7.236.294-.29 8.25-.29 8.25H258v15h-31v16h32v-15h16v-32h32v-32h16V98h15v16h17V66h15v16h32.051l-.276 15.75-.275 15.75-7.75.292-7.75.292V130h16v14.916l-7.75.292-7.75.292-.291 7.709-.292 7.708-7.708.292-7.709.291-.292 7.75-.292 7.75H355v-15h15.08l-.29-8.25-.29-8.25-7.209-.293-7.208-.293-.292-7.707-.291-7.707h-32l-.29 8.25-.29 8.25H338v47h80v-15h15v15h-15v16h15l.058 8.25c.032 4.537.145 11.625.25 15.75l.192 7.5 8.25.29 8.25.29V225h16.084l-.292-7.75-.292-7.75-7.75-.292-7.75-.292V162h15v16h17.08l-.29-8.25-.29-8.25-7.709-.291-7.708-.292-.292-7.708-.291-7.709-5.958-.306c-10.313-.53-10.542-.349-10.542 8.325V161h-31v-31h79v16h16v30.916l-7.75.292-7.75.292-.292 7.75-.292 7.75H529v31.916l-7.75.292-7.75.292-.292 7.75-.292 7.75H498v-16.08l-8.25.29-8.25.29-.292 7.75-.292 7.75H497v48h16v47h-14.916l-.292-7.75-.292-7.75-5.958-.306c-10.313-.53-10.542-.349-10.542 8.325V336h-30.916l-.292-7.75-.292-7.75-16-.18c-8.8-.098-19.488-.21-23.75-.25L402 320v-15h-16v46.916l-7.75.292-7.75.292-.264 31.75-.264 31.75H386v-48h16v-31h31v14.912l-7.25.294-7.25.294-.292 7.75-.292 7.75h15l.292 7.75.292 7.75 8.25.29 8.25.29V353h15v31h17v-16h16v-15h15v15h16v47.949l-15.75.276-15.75.275-.275 15.75-.276 15.75H481v16h-16v16h-15v-16h-31.916l-.292 7.75-.292 7.75-7.75.292-7.75.292V496h16v-16h31v15.916l-7.75.292-7.75.292-.292 7.75-.292 7.75h-14.832l-.292 7.75-.292 7.75-31.25.264-31.25.264V512h-16v-16h47v-16h-16v-16h-16v16h-15v-16h-16v-16h47v16h16v-32h-30.964l-.268-23.75-.268-23.75h-32l-.292 7.75-.292 7.75H338v32h-14.916l-.292-7.75-.292-7.75-7.709-.291-7.708-.292-.292-7.708-.291-7.709h-16l-.275 15.75-.276 15.75H322v16h-46.949l-.276-15.75-.275-15.75h-16l-.275 15.75-.276 15.75H274v16h-14.916l-.292-7.75-.292-7.75h-16v15l7.75.292 7.75.292V480h32v16h-32v32h-94zm63-16v-8h-16v16h16zm175 0v-8h-16v16h16zm-175.232-47.75-.268-23.75-7.75-.292-7.75-.292V480h16.036zm223-32-.268-23.75-23.75-.268-23.75-.268V448h48.036zM418 424v-8h15v16h-15Zm-175.225-7.75-.275-15.75-7.75-.292-7.75-.292V432H243.051zM482 416v-16h32.084l-.292-7.75-.292-7.75h-32l-.291 7.709-.292 7.708-7.708.292-7.709.291-.275 15.75-.276 15.75H482Zm-207.208-23.75-.292-7.75-7.75-.292-7.75-.292V368h16v-15h15v14.916l-7.75.292-7.75.292-.292 7.75-.292 7.75H307v-31h15v15h17.084l-.292-7.75-.292-7.75-7.75-.292-7.75-.292V337h16v-32H322.815l.466-5.25c.256-2.888 1.873-8.995 3.593-13.572 1.72-4.578 3.126-9.415 3.126-10.75V273h24v32h32v-16h16v16h32v-16h-32v-16h-16v-16h-16v16h-15v-16h-16v-16h-5.98c-5.96 0-5.986-.013-8-3.96-1.11-2.178-2.02-5.778-2.02-8V225h47v16H386.051l-.276-15.75-.275-15.75-31.208-.264-31.208-.264-.292-7.736-.292-7.736h-48l-.313 3.25-.314 3.25h-7.276c-8.175 0-20.193 2.753-28.378 6.5-3.003 1.375-6.72 2.5-8.26 2.5-2.295 0-2.918.539-3.456 2.986-.36 1.643-1.939 3.9-3.507 5.017-1.568 1.117-4.909 4.767-7.424 8.113L211 231.198V209h16.084l-.292-7.75-.292-7.75-7.709-.291-7.708-.292-.292-7.708-.291-7.709-7.75-.292-7.75-.292V209h-14.949l-.276-15.75-.275-15.75-8.25-.29-8.25-.29V209h16v16h16v16h5.607c4.935 0 5.525.21 4.919 1.75-1.7 4.324-3.597 17.332-3.39 23.25l.226 6.5-3.68.31-3.682.31V289h5.965c4.663 0 6.17.383 6.903 1.754.87 1.625-2.398 15.566-8.23 35.12-.882 2.955-1.385 5.726-1.118 6.158.267.432 2.847.157 5.733-.611 6.964-1.854 6.747-1.921 6.747 2.079v3.5h16V325.411l5.75-1.456c5.419-1.371 6.153-1.326 12.75.788 3.85 1.234 8.238 2.48 9.75 2.77 2.513.48 2.75.912 2.75 5.006V337h16v14.902l-15.465.3-15.465.298-.285-8-.285-8h-15l-.29 8.25-.29 8.25H242v15h-31v16h31v16h33.084zM291 330.026c0-5.605.183-6.07 2.95-7.5 1.623-.84 4.998-1.526 7.5-1.526H306v15h-15Zm-78.99-12.276c.004-.688 1.557-6.824 3.45-13.638l3.44-12.387-1.955-3.832c-7.055-13.83-6.69-35.329.838-49.278 3.462-6.414 12.9-16.56 19.112-20.547 17.606-11.298 41.827-11.308 58.933-.026 13.681 9.025 21.465 20.367 24.795 36.13 4.606 21.808-6.74 46.313-26.623 57.494-9.576 5.385-15.326 6.811-27.5 6.823-9.601.01-12.038-.357-19.168-2.883l-8.167-2.895-12.556 3.145c-14.216 3.56-14.612 3.611-14.6 1.894zm73.468-10.08c35.345-16.784 37.702-64.38 4.161-84.036-7.48-4.384-14.9-5.93-26.068-5.43-8.751.39-10.955.872-16.817 3.672-24.394 11.652-34.407 39.63-22.768 63.62l2.91 5.994-2.08 8.29c-1.144 4.56-1.896 8.473-1.672 8.697.223.224 4.087-.518 8.586-1.647l8.179-2.055 7.295 3.023c9.437 3.91 10.56 4.107 21.479 3.77 8.163-.25 10.028-.684 16.795-3.897zm-14.95-19.795c-11.537-4.678-24.755-17.352-29.66-28.44-4.285-9.687.817-21.986 8.337-20.098 1.959.491 2.989 1.93 4.655 6.5 2.634 7.223 2.637 7.657.072 11.258-1.316 1.849-1.832 3.644-1.42 4.94 1.08 3.406 10.685 12.43 15.893 14.935l4.906 2.359 3.358-3.665c1.847-2.015 3.815-3.664 4.373-3.664 1.693 0 12.958 5.968 12.958 6.865 0 .46-.49 2.242-1.088 3.959-2.392 6.86-12.37 9.111-22.384 5.051zM370 281v-8h16v16h-16zm-67.5-70.068-3-1.921 3.25-.005c2.585-.004 3.25.403 3.25 1.994 0 1.1-.113 1.967-.25 1.927-.138-.04-1.6-.938-3.25-1.995zm67.29 117.818-.29-8.25h-15l-.29 8.25-.29 8.25h16.16ZM35 297v-8H20v16h15zm48 0v-8H67v16h16zm399 0v-8h-16v-16h16v-16.08l-8.25.29-8.25.29-.291 7.709-.292 7.708-7.708.292-7.709.291-.292 7.75-.292 7.75H465v16h17zm-287.5-32v-7.5l-15.75-.275-15.75-.276v16.101l15.75-.275 15.75-.275Zm239.5 0v-8h-16v16h16zM83 241v-16h32v-16.028l-31.75.264-31.75.264v15l7.75.292 7.75.292V257h16zm383 7.96v-8.04l-8.25.29-8.25.29-.292 7.75-.292 7.75H466ZM179.5 233v-7.5l-7.709-.291-7.708-.292-.292-7.708-.291-7.709-16.25-.275-16.25-.275v32.086l24.25-.268 24.25-.268Zm238.292-15.75-.292-7.75-7.75-.292-7.75-.292V225h16.084zm80-16-.292-7.75h-16l-.292 7.75-.292 7.75h17.168Zm-175.002-31.5-.29-8.25h-32l-.29 8.25-.29 8.25h33.16ZM386 106v-8h-16v16h16zm-63 414v-8h15v16h-15zm111 0v-8h15v16h-15zm32 0v-8h15v16h-15zm32 0v-8h15v16h-15Zm-207-16v-8h15v16h-15zm159 0v-8h15v16h-15zm32 0v-8h-16v-16h16v-16h15v48h-15Zm-159-16v-8h15v16h-15zm-32-16v-8h15v16h-15zm223 0v-8h-16v-16h16v-16h15v48h-15zm0-127.5V337h15v15h-15zm-366-32V305h15v15h-15ZM132 281v-8h15v16h-15zm382-16v-8h15v16h-15zM147.829 137.498l-.329-7.503 7.75.002L163 130v15h-14.842l-.329-7.502ZM259 121.5V98h15v47h-15ZM4.667 113.333C4.3 112.967 4 87.992 4 57.833V3h111v111H60.167c-30.159 0-55.134-.3-55.5-.667ZM99 58V18H20v80h79ZM35.667 81.333c-.367-.366-.667-11.166-.667-24V34h48v48H59.667c-12.834 0-23.634-.3-24-.667zM164 106v-8h15v16h-15zm127 0v-8h15v16h-15Zm127-47.5V3h111v111H418Zm96-.511V17.977l-40.25.262-40.25.261-.233 38.5c-.128 21.175-.03 39.063.219 39.75.35.972 9.365 1.25 40.483 1.25H514ZM450 58V34h47v48h-47ZM307 90v-8h15v16h-15zm16-16v-8h15v16h-15Zm-32-16v-8h15v16h-15Zm47.792.25-.292-7.75-7.725-.292-7.725-.291-.275-15.709L322.5 18.5h-16l-.292 7.75-.292 7.75H291V3h31v15h17V3h15v31h16v16h-16v16h-14.916zM386 58.042V50h16.084l-.292 7.75-.292 7.75-7.75.292-7.75.292ZM370 10.5V3h32v15h-32z" class="UnoptimicedTransforms" transform="translate(1.1 -.294)"/></svg>